# xmcd
#
# Track frame offsets: 
#        150
#        50973
#        77317
#        98552
#        120658
#        153936
#        192239
#        216475
#        237304
#        271065
#        295312
#        315547
#
# Disc length: 4449 seconds
#
# Revision: 1
# Processed by: cddbd v1.5.2PL0 Copyright (c) Steve Scherf et al.
# Submitted via: ExactAudioCopy v0.99pb4
#
DISCID=a4115f0c
DTITLE=Miles Davis - Worldstar Series: Miles Davis [CD2]
DYEAR=2007
DGENRE=Jazz
TTITLE0=Bag's Groove (Take 1)
TTITLE1=Green Haze
TTITLE2=Solar
TTITLE3=Doxy
TTITLE4=A Night In Tunisia
TTITLE5=The Man I Love (Take 1)
TTITLE6=Stablemates
TTITLE7=But Not For Me (Take 1)
TTITLE8=Just Squeeze Me
TTITLE9=Well You Needn't
TTITLE10=Miles Ahead
TTITLE11=It Never Entered My Mind
EXTD=
EXTT0=
EXTT1=
EXTT2=
EXTT3=
EXTT4=
EXTT5=
EXTT6=
EXTT7=
EXTT8=
EXTT9=
EXTT10=
EXTT11=
PLAYORDER=
